<svg width="150" height="150" viewBox="0 0 150 150" fill="none" xmlns="http://www.w3.org/2000/svg">
<g opacity="0.4" filter="url(#filter0_d)">
<path fill-rule="evenodd" clip-rule="evenodd" d="M74.9999 30.2085C64.5125 30.2204 54.4581 34.3654 47.0424 41.7342C39.6267 49.103 35.4553 59.0938 35.4434 69.5148C35.4434 104.789 69.349 118.676 70.8012 119.249C73.4965 120.32 76.5033 120.32 79.1985 119.249C80.6508 118.676 114.556 104.789 114.556 69.5148C114.544 59.0938 110.373 49.103 102.957 41.7342C95.5416 34.3654 85.4872 30.2204 74.9999 30.2085Z" fill="#FF3B30"/>
</g>
<g opacity="0.6" filter="url(#filter1_d)">
<path fill-rule="evenodd" clip-rule="evenodd" d="M75.0002 108.821C75.0002 108.821 46.7456 97.5904 46.7456 69.5144C46.7456 62.0682 49.7224 54.927 55.0212 49.6617C60.32 44.3964 67.5067 41.4385 75.0002 41.4385C82.4938 41.4385 89.6805 44.3964 94.9793 49.6617C100.278 54.927 103.255 62.0682 103.255 69.5144C103.255 97.5904 75.0002 108.821 75.0002 108.821Z" fill="#FF3B30"/>
<path d="M75.0002 108.821C75.0002 108.821 46.7456 97.5904 46.7456 69.5144C46.7456 62.0682 49.7224 54.927 55.0212 49.6617C60.32 44.3964 67.5067 41.4385 75.0002 41.4385C82.4938 41.4385 89.6805 44.3964 94.9793 49.6617C100.278 54.927 103.255 62.0682 103.255 69.5144C103.255 97.5904 75.0002 108.821 75.0002 108.821Z" fill="#FF3B30"/>
</g>
<g filter="url(#filter2_f)">
<circle cx="74.9999" cy="69.7646" r="12.414" fill="white"/>
</g>
<circle cx="74.9999" cy="69.7646" r="12.414" fill="white"/>
<defs>
<filter id="filter0_d" x="22.4225" y="19.7918" width="105.155" height="115.885" filterUnits="userSpaceOnUse" color-interpolation-filters="sRGB">
<feFlood flood-opacity="0" result="BackgroundImageFix"/>
<feColorMatrix in="SourceAlpha" type="matrix" values="0 0 0 0 0 0 0 0 0 0 0 0 0 0 0 0 0 0 127 0"/>
<feOffset dy="2.60417"/>
<feGaussianBlur stdDeviation="6.51042"/>
<feColorMatrix type="matrix" values="0 0 0 0 1 0 0 0 0 0.376471 0 0 0 0 0.341176 0 0 0 1 0"/>
<feBlend mode="normal" in2="BackgroundImageFix" result="effect1_dropShadow"/>
<feBlend mode="normal" in="SourceGraphic" in2="effect1_dropShadow" result="shape"/>
</filter>
<filter id="filter1_d" x="33.7248" y="31.0218" width="82.551" height="93.4239" filterUnits="userSpaceOnUse" color-interpolation-filters="sRGB">
<feFlood flood-opacity="0" result="BackgroundImageFix"/>
<feColorMatrix in="SourceAlpha" type="matrix" values="0 0 0 0 0 0 0 0 0 0 0 0 0 0 0 0 0 0 127 0"/>
<feOffset dy="2.60417"/>
<feGaussianBlur stdDeviation="6.51042"/>
<feColorMatrix type="matrix" values="0 0 0 0 1 0 0 0 0 0.376471 0 0 0 0 0.341176 0 0 0 1 0"/>
<feBlend mode="normal" in2="BackgroundImageFix" result="effect1_dropShadow"/>
<feBlend mode="normal" in="SourceGraphic" in2="effect1_dropShadow" result="shape"/>
</filter>
<filter id="filter2_f" x="12.5859" y="7.35059" width="124.828" height="124.828" filterUnits="userSpaceOnUse" color-interpolation-filters="sRGB">
<feFlood flood-opacity="0" result="BackgroundImageFix"/>
<feBlend mode="normal" in="SourceGraphic" in2="BackgroundImageFix" result="shape"/>
<feGaussianBlur stdDeviation="25" result="effect1_foregroundBlur"/>
</filter>
</defs>
</svg>
